<svg xmlns="http://www.w3.org/2000/svg" width="24" height="24" fill="currentColor" viewBox="0 0 24 24" size="24"><path fill-rule="evenodd" d="M19.445 4.384a2.75 2.75 0 0 0-3.89 0L2.764 17.177a1.75 1.75 0 0 0-.513 1.237v3.336h4.336c.464 0 .909-.184 1.237-.513L20.116 8.945a2.75 2.75 0 0 0 0-3.89zm-2.829 1.06a1.25 1.25 0 0 1 1.768 0l.671.672a1.25 1.25 0 0 1 0 1.768L17.5 9.439 15.06 7l1.556-1.555ZM14 8.062l2.44 2.439-9.677 9.677a.25.25 0 0 1-.177.073H3.75v-1.836a.25.25 0 0 1 .073-.177z" clip-rule="evenodd"></path><path d="M23 21.75H9.432l1.5-1.5H23a.75.75 0 0 1 0 1.5"></path></svg>