<svg xmlns="http://www.w3.org/2000/svg" width="24" height="24" fill="currentColor" viewBox="0 0 24 24" focusable="false"><path fill-rule="evenodd" d="m23.691 19.7-6-14a.758.758 0 0 0-.69-.45c-.3 0-.57.18-.69.45l-6 14c-.16.39.01.83.39.99.39.16.83-.01.99-.39l2.38-5.55h5.86l2.38 5.55c.16.38.6.55.99.39.38-.16.55-.6.39-.99Zm-8.98-6.45 2.29-5.35 2.29 5.35h-4.58Zm-6.01 6.48-3.5-9a.748.748 0 0 0-.7-.48c-.31 0-.59.19-.7.48l-3.5 9a.75.75 0 1 0 1.4.54l.79-2.02h4.02l.79 2.02a.75.75 0 1 0 1.4-.54Zm-5.63-2.98 1.43-3.68 1.43 3.68h-2.86Z" clip-rule="evenodd"></path></svg>