<svg xmlns="http://www.w3.org/2000/svg" width="24" height="24" fill="currentColor" viewBox="0 0 24 24" focusable="false"><path fill-rule="evenodd" d="M7.337 19H2a2 2 0 0 1-2-2V7a2 2 0 0 1 2-2h20a2 2 0 0 1 2 2v10a2 2 0 0 1-2 2h-9.351c-.2.698-.42 1.353-.655 1.936-.293.73-.624 1.386-.993 1.872-.341.45-.856.942-1.546.942-.816 0-1.29-.637-1.536-1.145-.264-.545-.419-1.235-.503-1.905a11.182 11.182 0 0 1-.079-1.7ZM2 6.5h20a.5.5 0 0 1 .5.5v10a.5.5 0 0 1-.5.5h-8.964a35.02 35.02 0 0 0 .378-1.872c.164-.947.288-1.902.361-2.806a12.627 12.627 0 0 1 1.573-.884l.056.143.128.325c.114.284.264.63.454.911.161.24.517.683 1.105.683 1.035 0 1.89-.59 2.49-1.386.6-.797 1.003-1.862 1.162-3.011a.75.75 0 1 0-1.486-.206c-.132.95-.457 1.76-.874 2.314-.37.49-.768.73-1.145.78l-.008-.011a3.71 3.71 0 0 1-.307-.636l-.098-.248a11.933 11.933 0 0 0-.228-.557 2.162 2.162 0 0 0-.224-.392c-.062-.083-.304-.397-.737-.397a.75.75 0 0 0-.27.05 11.9 11.9 0 0 0-1.517.723c-.002-.251-.01-.493-.023-.724-.044-.734-.155-1.422-.382-1.95-.223-.52-.667-1.099-1.444-1.099-.52 0-1.215.217-1.9.486-.718.282-1.539.67-2.358 1.1-1.623.853-3.322 1.917-4.239 2.727a.75.75 0 1 0 .994 1.124c.78-.69 2.353-1.688 3.943-2.523a23.18 23.18 0 0 1 2.21-1.032c.646-.255 1.088-.368 1.31-.38a.69.69 0 0 1 .106.188c.125.292.222.776.262 1.449.03.48.027 1.023-.002 1.609-.524.377-1.03.785-1.506 1.207-1.358 1.207-2.527 2.596-3.131 3.843a2.563 2.563 0 0 0-.163.452H2a.5.5 0 0 1-.5-.5V7a.5.5 0 0 1 .5-.5ZM11.084 19c-.152.496-.314.96-.482 1.377-.27.675-.543 1.192-.796 1.526-.183.24-.299.315-.343.337-.035-.027-.104-.102-.194-.288-.162-.335-.29-.842-.364-1.439A9.678 9.678 0 0 1 8.838 19h2.246Zm.41-1.5H9.142c.518-.964 1.48-2.113 2.675-3.174.105-.094.212-.186.32-.278a32.415 32.415 0 0 1-.643 3.452Zm.442-8.77s.006.002.016.012c-.011-.005-.016-.01-.016-.011ZM9.488 22.257s-.003 0-.008-.003c.006.001.008.002.008.003Zm7.811-9.69-.01-.01.01.01Z" clip-rule="evenodd"></path></svg>