<svg xmlns="http://www.w3.org/2000/svg" width="24" height="24" fill="currentColor" viewBox="0 0 24 24" focusable="false"><path d="M19.75 7c0 .41-.34.75-.75.75h-9c-.41 0-.75-.34-.75-.75s.34-.75.75-.75h9c.41 0 .75.34.75.75ZM19 17.75c.41 0 .75-.34.75-.75s-.34-.75-.75-.75h-9c-.41 0-.75.34-.75.75s.34.75.75.75h9Zm.75-5.75c0 .41-.34.75-.75.75h-9c-.41 0-.75-.34-.75-.75s.34-.75.75-.75h9c.41 0 .75.34.75.75ZM5.5 8.5C6.33 8.5 7 7.83 7 7s-.67-1.5-1.5-1.5S4 6.17 4 7s.67 1.5 1.5 1.5ZM7 17c0 .83-.67 1.5-1.5 1.5S4 17.83 4 17s.67-1.5 1.5-1.5S7 16.17 7 17Zm-1.5-3.5c.83 0 1.5-.67 1.5-1.5s-.67-1.5-1.5-1.5S4 11.17 4 12s.67 1.5 1.5 1.5ZM22 2H2C.9 2 0 2.9 0 4v16c0 1.1.9 2 2 2h20c1.1 0 2-.9 2-2V4c0-1.1-.9-2-2-2Zm.5 18c0 .28-.22.5-.5.5H2c-.28 0-.5-.22-.5-.5V4c0-.28.22-.5.5-.5h20c.28 0 .5.22.5.5v16Z"></path></svg>