<svg xmlns="http://www.w3.org/2000/svg" width="24" height="24" fill="currentColor" viewBox="0 0 24 24" focusable="false"><path d="M19 17.5c0 .83-.67 1.5-1.5 1.5s-1.5-.67-1.5-1.5.67-1.5 1.5-1.5 1.5.67 1.5 1.5Zm0-5c0 .83-.67 1.5-1.5 1.5s-1.5-.67-1.5-1.5.67-1.5 1.5-1.5 1.5.67 1.5 1.5Zm-5.5 5c0 .83-.67 1.5-1.5 1.5s-1.5-.67-1.5-1.5.67-1.5 1.5-1.5 1.5.67 1.5 1.5Zm0-5c0 .83-.67 1.5-1.5 1.5s-1.5-.67-1.5-1.5.67-1.5 1.5-1.5 1.5.67 1.5 1.5Zm-5.5 5c0 .83-.67 1.5-1.5 1.5S5 18.33 5 17.5 5.67 16 6.5 16s1.5.67 1.5 1.5Zm12-15h-1.75V1c0-.41-.34-.75-.75-.75s-.75.34-.75.75v1.5h-9.5V1c0-.41-.34-.75-.75-.75s-.75.34-.75.75v1.5H4C2.07 2.5.5 4.07.5 6v13c0 1.93 1.57 3.5 3.5 3.5h16c1.93 0 3.5-1.57 3.5-3.5V6c0-1.93-1.57-3.5-3.5-3.5ZM22 19c0 1.1-.9 2-2 2H4c-1.1 0-2-.9-2-2V9.25h20V19Zm0-11.25H2V6c0-1.1.9-2 2-2h1.75v2c0 .41.34.75.75.75s.75-.34.75-.75V4h9.5v2c0 .41.34.75.75.75s.75-.34.75-.75V4H20c1.1 0 2 .9 2 2v1.75Z"></path></svg>