<svg xmlns="http://www.w3.org/2000/svg" width="24" height="24" fill="currentColor" viewBox="0 0 24 24" focusable="false"><path fill-rule="evenodd" d="M22 5H2C.9 5 0 5.9 0 7v10c0 1.1.9 2 2 2h20c1.1 0 2-.9 2-2V7c0-1.1-.9-2-2-2Zm.5 12c0 .28-.22.5-.5.5H2c-.28 0-.5-.22-.5-.5V7c0-.28.22-.5.5-.5h20c.28 0 .5.22.5.5v10ZM8.27 9.29c-1.68 0-2.84 1.3-2.84 2.91s1.16 2.91 2.84 2.91 2.84-1.3 2.84-2.91-1.16-2.91-2.84-2.91Zm0 4.62c-.97 0-1.46-.89-1.46-1.71s.49-1.71 1.46-1.71 1.47.89 1.47 1.71-.49 1.71-1.47 1.71ZM12.75 15V9.4h1.38v2.14l2.05-2.14h1.66l-2.06 2.18L17.92 15h-1.59l-1.53-2.48-.67.72V15h-1.38Z" clip-rule="evenodd"></path></svg>