<svg xmlns="http://www.w3.org/2000/svg" width="24" height="24" fill="currentColor" viewBox="0 0 24 24" size="24"><path fill-rule="evenodd" d="M9 6C7.34 6 6 7.34 6 9s1.34 3 3 3 3-1.34 3-3-1.34-3-3-3m0 4.5c-.83 0-1.5-.67-1.5-1.5S8.17 7.5 9 7.5s1.5.67 1.5 1.5-.67 1.5-1.5 1.5m7 3.5H8c-1.1 0-2 .9-2 2v2c0 1.1.9 2 2 2h8c1.1 0 2-.9 2-2v-2c0-1.1-.9-2-2-2m.5 4c0 .28-.22.5-.5.5H8c-.28 0-.5-.22-.5-.5v-2c0-.28.22-.5.5-.5h8c.28 0 .5.22.5.5zm4.03-12.03-5.5-5.5a.75.75 0 0 0-.53-.22H5c-.97 0-1.75.78-1.75 1.75v20c0 .97.78 1.75 1.75 1.75h14c.97 0 1.75-.78 1.75-1.75V6.5c0-.2-.08-.39-.22-.53M19.25 22c0 .14-.11.25-.25.25H5c-.14 0-.25-.11-.25-.25V2c0-.14.11-.25.25-.25h8.75V6.5c0 .41.34.75.75.75h4.75z" clip-rule="evenodd"></path></svg>