<svg xmlns="http://www.w3.org/2000/svg" width="24" height="24" fill="currentColor" viewBox="0 0 24 24" focusable="false"><path fill-rule="evenodd" d="M8.25 2A.75.75 0 0 1 9 1.25c1.227 0 2.316.589 3 1.5a3.744 3.744 0 0 1 3-1.5.75.75 0 0 1 0 1.5A2.25 2.25 0 0 0 12.75 5H22a2 2 0 0 1 2 2v10a2 2 0 0 1-2 2h-9.25v.002A2.25 2.25 0 0 0 15 21.25a.75.75 0 0 1 0 1.5 3.744 3.744 0 0 1-3-1.5 3.744 3.744 0 0 1-3 1.5.75.75 0 0 1 0-1.5A2.25 2.25 0 0 0 11.25 19H2a2 2 0 0 1-2-2V7a2 2 0 0 1 2-2h9.25A2.25 2.25 0 0 0 9 2.75.75.75 0 0 1 8.25 2ZM2 6.5h9.25v4.75h-1.5a.75.75 0 0 0 0 1.5h1.5v4.75H2a.5.5 0 0 1-.5-.5V7a.5.5 0 0 1 .5-.5Zm10.75 6.25v4.75H22a.5.5 0 0 0 .5-.5V7a.5.5 0 0 0-.5-.5h-9.25v4.75h1.5a.75.75 0 0 1 0 1.5h-1.5Z" clip-rule="evenodd"></path></svg>