<svg xmlns="http://www.w3.org/2000/svg" width="24" height="24" fill="currentColor" viewBox="0 0 24 24" focusable="false"><path d="M17.5 9c0 .55-.45 1-1 1s-1-.45-1-1 .45-1 1-1 1 .45 1 1ZM10 15.25c-.41 0-.75.34-.75.75s.34.75.75.75h4c.41 0 .75-.34.75-.75s-.34-.75-.75-.75h-4Zm0 3c-.41 0-.75.34-.75.75s.34.75.75.75h4c.41 0 .75-.34.75-.75s-.34-.75-.75-.75h-4Zm11-13h-2.25V3.5c0-.97-.78-1.75-1.75-1.75H7c-.97 0-1.75.78-1.75 1.75v1.75H3C1.48 5.25.25 6.48.25 8v8c0 1.52 1.23 2.75 2.75 2.75h2.25V22c0 .97.78 1.75 1.75 1.75h10c.97 0 1.75-.78 1.75-1.75v-3.25H21c1.52 0 2.75-1.23 2.75-2.75V8c0-1.52-1.23-2.75-2.75-2.75ZM6.75 3.5c0-.14.11-.25.25-.25h10c.14 0 .25.11.25.25v1.75H6.75V3.5ZM17.25 22c0 .14-.11.25-.25.25H7c-.14 0-.25-.11-.25-.25v-9c0-.14.11-.25.25-.25h10c.14 0 .25.11.25.25v9Zm5-6c0 .69-.56 1.25-1.25 1.25h-2.25V13c0-.97-.78-1.75-1.75-1.75H7c-.97 0-1.75.78-1.75 1.75v4.25H3c-.69 0-1.25-.56-1.25-1.25V8c0-.69.56-1.25 1.25-1.25h18c.69 0 1.25.56 1.25 1.25v8Z"></path></svg>