<svg xmlns="http://www.w3.org/2000/svg" width="16" height="16" fill="none" style=""><rect id="backgroundrect" width="100%" height="100%" x="0" y="0" fill="none" stroke="none"/>


<g class="currentLayer" style=""><title>Layer 1</title><path d="M2.6095878892461646,9.033263234948205 C2.7413792239632784,9.033263234948205 2.8731705586803917,9.019027465437935 3.0027653711522198,8.99126771489291 L6.773095805184305,8.175558121954486 L14.459792454726264,3.194462370311306 C15.26152307425537,2.674144994710968 15.26152307425537,1.8271167088499525 14.459792454726264,1.3067993332496146 L13.295635664725097,0.552302125628398 C12.491708522950704,0.03269632496703075 11.186974309251283,0.03269632496703075 10.38308011531057,0.552302125628398 L2.6963505179349303,5.5341110893240435 L1.4388415325091408,7.9798162911882855 C1.2905762809523882,8.26880241224675 1.4047954377072196,8.583412918423699 1.737568557867931,8.798373038028762 C1.974792960358735,8.951407560264157 2.287797380311879,9.033263234948205 2.6095878892461646,9.033263234948205 zM11.353909999892958,1.1822363500347595 C11.61968919157247,1.0085599620094756 12.057895379506872,1.0085599620094756 12.323674571186386,1.1822363500347595 L13.488929622310195,1.937443922554539 C13.756905336234993,2.110408522104309 13.756905336234993,2.392988546883152 13.488929622310195,2.565953146432922 L12.319281526695812,3.324719661330269 L10.183196590989613,1.9402910764565928 L11.353909999892958,1.1822363500347595 zM3.8956516638606633,6.01528009877114 L9.211235497450904,2.5702238772860033 L11.346222172034462,3.9539406736841656 L6.0306712862779,7.3997086836448185 L2.827043591529402,8.092278870319413 L3.8956516638606633,6.01528009877114 z" fill="black" id="svg_1" class=""/><rect fill="none" stroke="#000000" stroke-dashoffset="" fill-rule="nonzero" id="svg_3" x="0" y="12" width="0" height="1" style="color: rgb(0, 0, 0);"/><rect fill="none" stroke="#000000" stroke-dashoffset="" fill-rule="nonzero" id="svg_6" x="1.5714285671710968" y="9.81632650750024" width="13" height="5.265306115150452" style="color: rgb(0, 0, 0);" class=""/></g></svg>