<svg width="72" height="55" viewBox="0 0 72 55" fill="none" xmlns="http://www.w3.org/2000/svg">
<path d="M63.7705 26.7454C63.557 27.5281 63.8375 28.3622 64.4806 28.8569C67.9372 31.5158 70 35.4516 70 39.5717C70 46.8671 64.2954 52.5717 57 52.5717H18C9.20457 52.5717 2 45.3671 2 36.5717C2 28.3226 8.39681 21.3652 16.6926 20.5624C17.6493 20.4698 18.4048 19.7099 18.4918 18.7527C19.3021 9.83941 26.8775 2.57166 36 2.57166C42.9926 2.57166 49.4644 6.88618 52.1538 13.3409C52.4644 14.0862 53.1926 14.5717 54 14.5717C57.2556 14.5717 60.2562 16.0619 62.2825 18.848C62.2864 18.8534 62.2904 18.8588 62.2944 18.8641C62.3032 18.876 62.3122 18.8878 62.3213 18.8995C64.0033 21.0621 64.5188 24.0014 63.7705 26.7454Z" stroke="#D7DCE4" stroke-width="4" stroke-linejoin="round"/>
<path d="M36 40.0717V22.5717M36 22.5717L28 30.5717M36 22.5717L44 30.5717" stroke="#D7DCE4" stroke-width="4" stroke-linecap="round"/>
</svg>
